<?xml version="1.0" encoding="UTF-8" standalone="no"?><svg xmlns="http://www.w3.org/2000/svg" xmlns:xlink="http://www.w3.org/1999/xlink" contentScriptType="application/ecmascript" contentStyleType="text/css" height="716px" preserveAspectRatio="none" style="width:1094px;height:716px;" version="1.1" viewBox="0 0 1094 716" width="1094px" zoomAndPan="magnify"><defs/><g><text fill="#000000" font-family="sans-serif" font-size="12" lengthAdjust="spacingAndGlyphs" textLength="253" x="26" y="19.752">public class LessonOneActivity extends Activity</text><text fill="#000000" font-family="sans-serif" font-size="12" lengthAdjust="spacingAndGlyphs" textLength="249" x="46" y="36.1406">mGLSurfaceView = new GLSurfaceView(this);</text><text fill="#000000" font-family="sans-serif" font-size="12" lengthAdjust="spacingAndGlyphs" textLength="363" x="46" y="52.5293">mGLSurfaceView.setRenderer(new LessonOneNativeRenderer());</text><text fill="#000000" font-family="sans-serif" font-size="12" lengthAdjust="spacingAndGlyphs" textLength="314" x="66" y="68.918">public void onSurfaceCreated(GL10 gl, EGLConfig config)</text><text fill="#000000" font-family="sans-serif" font-size="12" lengthAdjust="spacingAndGlyphs" textLength="250" x="86" y="85.3066">public static native void nativeSurfaceCreate();</text><text fill="#000000" font-family="sans-serif" font-size="12" lengthAdjust="spacingAndGlyphs" textLength="861" x="106" y="101.6953">extern "C" JNIEXPORT void JNICALL Java_com_learnopengles_android_lesson1_LessonOneNativeRenderer_nativeSurfaceCreate( JNIEnv *env, jclass type)</text><text fill="#000000" font-family="sans-serif" font-size="12" lengthAdjust="spacingAndGlyphs" textLength="214" x="126" y="118.084">native1Lesson = new Native1Lesson();</text><text fill="#000000" font-family="sans-serif" font-size="12" lengthAdjust="spacingAndGlyphs" textLength="137" x="146" y="134.4727">native1Lesson-&gt;create();</text><text fill="#000000" font-family="sans-serif" font-size="12" lengthAdjust="spacingAndGlyphs" textLength="459" x="166" y="150.8613">mProgram = GLUtils::createProgram(&amp;VERTEX_SHADER, &amp;FRAGMENT_SHADER);</text><text fill="#000000" font-family="sans-serif" font-size="12" lengthAdjust="spacingAndGlyphs" textLength="400" x="186" y="167.25">GLuint vertexShader = loadShader(GL_VERTEX_SHADER, vertexSource);</text><text fill="#000000" font-family="sans-serif" font-size="12" lengthAdjust="spacingAndGlyphs" textLength="254" x="206" y="183.6387">GLuint shader = glCreateShader(shaderType);</text><text fill="#000000" font-family="sans-serif" font-size="12" lengthAdjust="spacingAndGlyphs" textLength="234" x="206" y="200.0273">glShaderSource(shader, 1, source, NULL);</text><text fill="#000000" font-family="sans-serif" font-size="12" lengthAdjust="spacingAndGlyphs" textLength="147" x="206" y="216.416">glCompileShader(shader);</text><text fill="#000000" font-family="sans-serif" font-size="12" lengthAdjust="spacingAndGlyphs" textLength="455" x="186" y="232.8047">GLuint fragmentShader = loadShader(GL_FRAGMENT_SHADER, fragmentSource);</text><text fill="#000000" font-family="sans-serif" font-size="12" lengthAdjust="spacingAndGlyphs" textLength="254" x="206" y="249.1934">GLuint shader = glCreateShader(shaderType);</text><text fill="#000000" font-family="sans-serif" font-size="12" lengthAdjust="spacingAndGlyphs" textLength="234" x="206" y="265.582">glShaderSource(shader, 1, source, NULL);</text><text fill="#000000" font-family="sans-serif" font-size="12" lengthAdjust="spacingAndGlyphs" textLength="147" x="206" y="281.9707">glCompileShader(shader);</text><text fill="#000000" font-family="sans-serif" font-size="12" lengthAdjust="spacingAndGlyphs" textLength="205" x="186" y="298.3594">GLuint program = glCreateProgram();</text><text fill="#000000" font-family="sans-serif" font-size="12" lengthAdjust="spacingAndGlyphs" textLength="218" x="186" y="314.748">glAttachShader(program, vertexShader);</text><text fill="#000000" font-family="sans-serif" font-size="12" lengthAdjust="spacingAndGlyphs" textLength="236" x="186" y="331.1367">glAttachShader(program, fragmentShader);</text><text fill="#000000" font-family="sans-serif" font-size="12" lengthAdjust="spacingAndGlyphs" textLength="139" x="186" y="347.5254">glLinkProgram(program);</text><text fill="#000000" font-family="sans-serif" font-size="12" lengthAdjust="spacingAndGlyphs" textLength="156" x="166" y="363.9141">mModelMatrix = new Matrix();</text><text fill="#000000" font-family="sans-serif" font-size="12" lengthAdjust="spacingAndGlyphs" textLength="147" x="166" y="380.3027">mMVPMatrix = new Matrix();</text><text fill="#000000" font-family="sans-serif" font-size="12" lengthAdjust="spacingAndGlyphs" textLength="501" x="166" y="396.6914">mViewMatrix = Matrix::newLookAt(eyeX, eyeY, eyeZ, centerX, centerY, centerZ, upX, upY, upZ);</text><text fill="#000000" font-family="sans-serif" font-size="12" lengthAdjust="spacingAndGlyphs" textLength="326" x="66" y="413.0801">public void onSurfaceChanged(GL10 gl, int width, int height)</text><text fill="#000000" font-family="sans-serif" font-size="12" lengthAdjust="spacingAndGlyphs" textLength="358" x="86" y="429.4688">public static native void nativeSurfaceChange(int width, int height);</text><text fill="#000000" font-family="sans-serif" font-size="12" lengthAdjust="spacingAndGlyphs" textLength="981" x="106" y="445.8574">extern "C" JNIEXPORT void JNICALL Java_com_learnopengles_android_lesson1_LessonOneNativeRenderer_nativeSurfaceChange( JNIEnv *env, jclass type, jint width, jint height)</text><text fill="#000000" font-family="sans-serif" font-size="12" lengthAdjust="spacingAndGlyphs" textLength="213" x="126" y="462.2461">native1Lesson-&gt;change(width, height);</text><text fill="#000000" font-family="sans-serif" font-size="12" lengthAdjust="spacingAndGlyphs" textLength="163" x="146" y="478.6348">glViewport(0, 0, width, height);</text><text fill="#000000" font-family="sans-serif" font-size="12" lengthAdjust="spacingAndGlyphs" textLength="391" x="146" y="495.0234">mProjectionMatrix = Matrix::newFrustum(left, right, bottom, top, near, far);</text><text fill="#000000" font-family="sans-serif" font-size="12" lengthAdjust="spacingAndGlyphs" textLength="191" x="66" y="511.4121">public void onDrawFrame(GL10 gl)</text><text fill="#000000" font-family="sans-serif" font-size="12" lengthAdjust="spacingAndGlyphs" textLength="236" x="86" y="527.8008">public static native void nativeDrawFrame();</text><text fill="#000000" font-family="sans-serif" font-size="12" lengthAdjust="spacingAndGlyphs" textLength="847" x="106" y="544.1895">extern "C" JNIEXPORT void JNICALL Java_com_learnopengles_android_lesson1_LessonOneNativeRenderer_nativeDrawFrame( JNIEnv *env, jclass type)</text><text fill="#000000" font-family="sans-serif" font-size="12" lengthAdjust="spacingAndGlyphs" textLength="130" x="126" y="560.5781">native1Lesson-&gt;draw();</text><text fill="#000000" font-family="sans-serif" font-size="12" lengthAdjust="spacingAndGlyphs" textLength="523" x="146" y="576.9668">glUseProgram(mProgram); // 激活指定的Program，接下来的绘制会使用指定的Program进行渲染</text><text fill="#000000" font-family="sans-serif" font-size="12" lengthAdjust="spacingAndGlyphs" textLength="439" x="146" y="593.3555">mMVPMatrixHandle = (GLuint) glGetUniformLocation(mProgram, "u_MVPMatrix");</text><text fill="#000000" font-family="sans-serif" font-size="12" lengthAdjust="spacingAndGlyphs" textLength="402" x="146" y="609.7441">mPositionHandle = (GLuint) glGetAttribLocation(mProgram, "a_Position");</text><text fill="#000000" font-family="sans-serif" font-size="12" lengthAdjust="spacingAndGlyphs" textLength="372" x="146" y="626.1328">mColorHandle = (GLuint) glGetAttribLocation(mProgram, "a_Color");</text><text fill="#000000" font-family="sans-serif" font-size="12" lengthAdjust="spacingAndGlyphs" textLength="201" x="146" y="642.5215">drawTriangle(triangle1VerticesData);</text><text fill="#000000" font-family="sans-serif" font-size="12" lengthAdjust="spacingAndGlyphs" textLength="516" x="166" y="658.9102">glVertexAttribPointer( (GLuint) mPositionHandle, 3, GL_FLOAT, GL_FALSE, 4 * 7, verticesData);</text><text fill="#000000" font-family="sans-serif" font-size="12" lengthAdjust="spacingAndGlyphs" textLength="290" x="166" y="675.2988">glEnableVertexAttribArray((GLuint) mPositionHandle);</text><text fill="#000000" font-family="sans-serif" font-size="12" lengthAdjust="spacingAndGlyphs" textLength="416" x="166" y="691.6875">glUniformMatrix4fv(mMVPMatrixHandle, 1, GL_FALSE, mMVPMatrix-&gt;mData);</text><text fill="#000000" font-family="sans-serif" font-size="12" lengthAdjust="spacingAndGlyphs" textLength="200" x="166" y="708.0762">glDrawArrays(GL_TRIANGLES, 0, 3);</text><rect fill="none" height="2" style="stroke: #888888; stroke-width: 1.0;" width="2" x="19" y="13.1943"/><line style="stroke: #888888; stroke-width: 1.0;" x1="20" x2="20" y1="16.1943" y2="30.583"/><line style="stroke: #888888; stroke-width: 1.0;" x1="20" x2="38" y1="30.583" y2="30.583"/><rect fill="none" height="2" style="stroke: #888888; stroke-width: 1.0;" width="2" x="39" y="45.9717"/><line style="stroke: #888888; stroke-width: 1.0;" x1="20" x2="20" y1="16.1943" y2="46.9717"/><line style="stroke: #888888; stroke-width: 1.0;" x1="20" x2="38" y1="46.9717" y2="46.9717"/><rect fill="none" height="2" style="stroke: #888888; stroke-width: 1.0;" width="2" x="59" y="62.3604"/><line style="stroke: #888888; stroke-width: 1.0;" x1="40" x2="40" y1="48.9717" y2="63.3604"/><line style="stroke: #888888; stroke-width: 1.0;" x1="40" x2="58" y1="63.3604" y2="63.3604"/><rect fill="none" height="2" style="stroke: #888888; stroke-width: 1.0;" width="2" x="79" y="78.749"/><line style="stroke: #888888; stroke-width: 1.0;" x1="60" x2="60" y1="65.3604" y2="79.749"/><line style="stroke: #888888; stroke-width: 1.0;" x1="60" x2="78" y1="79.749" y2="79.749"/><rect fill="none" height="2" style="stroke: #888888; stroke-width: 1.0;" width="2" x="99" y="95.1377"/><line style="stroke: #888888; stroke-width: 1.0;" x1="80" x2="80" y1="81.749" y2="96.1377"/><line style="stroke: #888888; stroke-width: 1.0;" x1="80" x2="98" y1="96.1377" y2="96.1377"/><rect fill="none" height="2" style="stroke: #888888; stroke-width: 1.0;" width="2" x="119" y="111.5264"/><line style="stroke: #888888; stroke-width: 1.0;" x1="100" x2="100" y1="98.1377" y2="112.5264"/><line style="stroke: #888888; stroke-width: 1.0;" x1="100" x2="118" y1="112.5264" y2="112.5264"/><rect fill="none" height="2" style="stroke: #888888; stroke-width: 1.0;" width="2" x="139" y="127.915"/><line style="stroke: #888888; stroke-width: 1.0;" x1="120" x2="120" y1="114.5264" y2="128.915"/><line style="stroke: #888888; stroke-width: 1.0;" x1="120" x2="138" y1="128.915" y2="128.915"/><rect fill="none" height="2" style="stroke: #888888; stroke-width: 1.0;" width="2" x="159" y="144.3037"/><line style="stroke: #888888; stroke-width: 1.0;" x1="140" x2="140" y1="130.915" y2="145.3037"/><line style="stroke: #888888; stroke-width: 1.0;" x1="140" x2="158" y1="145.3037" y2="145.3037"/><rect fill="none" height="2" style="stroke: #888888; stroke-width: 1.0;" width="2" x="179" y="160.6924"/><line style="stroke: #888888; stroke-width: 1.0;" x1="160" x2="160" y1="147.3037" y2="161.6924"/><line style="stroke: #888888; stroke-width: 1.0;" x1="160" x2="178" y1="161.6924" y2="161.6924"/><line style="stroke: #888888; stroke-width: 1.0;" x1="180" x2="180" y1="163.6924" y2="178.0811"/><line style="stroke: #888888; stroke-width: 1.0;" x1="180" x2="198" y1="178.0811" y2="178.0811"/><line style="stroke: #888888; stroke-width: 1.0;" x1="180" x2="180" y1="163.6924" y2="194.4697"/><line style="stroke: #888888; stroke-width: 1.0;" x1="180" x2="198" y1="194.4697" y2="194.4697"/><line style="stroke: #888888; stroke-width: 1.0;" x1="180" x2="180" y1="163.6924" y2="210.8584"/><line style="stroke: #888888; stroke-width: 1.0;" x1="180" x2="198" y1="210.8584" y2="210.8584"/><rect fill="none" height="2" style="stroke: #888888; stroke-width: 1.0;" width="2" x="179" y="226.2471"/><line style="stroke: #888888; stroke-width: 1.0;" x1="160" x2="160" y1="147.3037" y2="227.2471"/><line style="stroke: #888888; stroke-width: 1.0;" x1="160" x2="178" y1="227.2471" y2="227.2471"/><line style="stroke: #888888; stroke-width: 1.0;" x1="180" x2="180" y1="229.2471" y2="243.6357"/><line style="stroke: #888888; stroke-width: 1.0;" x1="180" x2="198" y1="243.6357" y2="243.6357"/><line style="stroke: #888888; stroke-width: 1.0;" x1="180" x2="180" y1="229.2471" y2="260.0244"/><line style="stroke: #888888; stroke-width: 1.0;" x1="180" x2="198" y1="260.0244" y2="260.0244"/><line style="stroke: #888888; stroke-width: 1.0;" x1="180" x2="180" y1="229.2471" y2="276.4131"/><line style="stroke: #888888; stroke-width: 1.0;" x1="180" x2="198" y1="276.4131" y2="276.4131"/><line style="stroke: #888888; stroke-width: 1.0;" x1="160" x2="160" y1="147.3037" y2="292.8018"/><line style="stroke: #888888; stroke-width: 1.0;" x1="160" x2="178" y1="292.8018" y2="292.8018"/><line style="stroke: #888888; stroke-width: 1.0;" x1="160" x2="160" y1="147.3037" y2="309.1904"/><line style="stroke: #888888; stroke-width: 1.0;" x1="160" x2="178" y1="309.1904" y2="309.1904"/><line style="stroke: #888888; stroke-width: 1.0;" x1="160" x2="160" y1="147.3037" y2="325.5791"/><line style="stroke: #888888; stroke-width: 1.0;" x1="160" x2="178" y1="325.5791" y2="325.5791"/><line style="stroke: #888888; stroke-width: 1.0;" x1="160" x2="160" y1="147.3037" y2="341.9678"/><line style="stroke: #888888; stroke-width: 1.0;" x1="160" x2="178" y1="341.9678" y2="341.9678"/><line style="stroke: #888888; stroke-width: 1.0;" x1="140" x2="140" y1="130.915" y2="358.3564"/><line style="stroke: #888888; stroke-width: 1.0;" x1="140" x2="158" y1="358.3564" y2="358.3564"/><line style="stroke: #888888; stroke-width: 1.0;" x1="140" x2="140" y1="130.915" y2="374.7451"/><line style="stroke: #888888; stroke-width: 1.0;" x1="140" x2="158" y1="374.7451" y2="374.7451"/><line style="stroke: #888888; stroke-width: 1.0;" x1="140" x2="140" y1="130.915" y2="391.1338"/><line style="stroke: #888888; stroke-width: 1.0;" x1="140" x2="158" y1="391.1338" y2="391.1338"/><rect fill="none" height="2" style="stroke: #888888; stroke-width: 1.0;" width="2" x="59" y="406.5225"/><line style="stroke: #888888; stroke-width: 1.0;" x1="40" x2="40" y1="48.9717" y2="407.5225"/><line style="stroke: #888888; stroke-width: 1.0;" x1="40" x2="58" y1="407.5225" y2="407.5225"/><rect fill="none" height="2" style="stroke: #888888; stroke-width: 1.0;" width="2" x="79" y="422.9111"/><line style="stroke: #888888; stroke-width: 1.0;" x1="60" x2="60" y1="409.5225" y2="423.9111"/><line style="stroke: #888888; stroke-width: 1.0;" x1="60" x2="78" y1="423.9111" y2="423.9111"/><rect fill="none" height="2" style="stroke: #888888; stroke-width: 1.0;" width="2" x="99" y="439.2998"/><line style="stroke: #888888; stroke-width: 1.0;" x1="80" x2="80" y1="425.9111" y2="440.2998"/><line style="stroke: #888888; stroke-width: 1.0;" x1="80" x2="98" y1="440.2998" y2="440.2998"/><rect fill="none" height="2" style="stroke: #888888; stroke-width: 1.0;" width="2" x="119" y="455.6885"/><line style="stroke: #888888; stroke-width: 1.0;" x1="100" x2="100" y1="442.2998" y2="456.6885"/><line style="stroke: #888888; stroke-width: 1.0;" x1="100" x2="118" y1="456.6885" y2="456.6885"/><line style="stroke: #888888; stroke-width: 1.0;" x1="120" x2="120" y1="458.6885" y2="473.0771"/><line style="stroke: #888888; stroke-width: 1.0;" x1="120" x2="138" y1="473.0771" y2="473.0771"/><line style="stroke: #888888; stroke-width: 1.0;" x1="120" x2="120" y1="458.6885" y2="489.4658"/><line style="stroke: #888888; stroke-width: 1.0;" x1="120" x2="138" y1="489.4658" y2="489.4658"/><rect fill="none" height="2" style="stroke: #888888; stroke-width: 1.0;" width="2" x="59" y="504.8545"/><line style="stroke: #888888; stroke-width: 1.0;" x1="40" x2="40" y1="48.9717" y2="505.8545"/><line style="stroke: #888888; stroke-width: 1.0;" x1="40" x2="58" y1="505.8545" y2="505.8545"/><rect fill="none" height="2" style="stroke: #888888; stroke-width: 1.0;" width="2" x="79" y="521.2432"/><line style="stroke: #888888; stroke-width: 1.0;" x1="60" x2="60" y1="507.8545" y2="522.2432"/><line style="stroke: #888888; stroke-width: 1.0;" x1="60" x2="78" y1="522.2432" y2="522.2432"/><rect fill="none" height="2" style="stroke: #888888; stroke-width: 1.0;" width="2" x="99" y="537.6318"/><line style="stroke: #888888; stroke-width: 1.0;" x1="80" x2="80" y1="524.2432" y2="538.6318"/><line style="stroke: #888888; stroke-width: 1.0;" x1="80" x2="98" y1="538.6318" y2="538.6318"/><rect fill="none" height="2" style="stroke: #888888; stroke-width: 1.0;" width="2" x="119" y="554.0205"/><line style="stroke: #888888; stroke-width: 1.0;" x1="100" x2="100" y1="540.6318" y2="555.0205"/><line style="stroke: #888888; stroke-width: 1.0;" x1="100" x2="118" y1="555.0205" y2="555.0205"/><line style="stroke: #888888; stroke-width: 1.0;" x1="120" x2="120" y1="557.0205" y2="571.4092"/><line style="stroke: #888888; stroke-width: 1.0;" x1="120" x2="138" y1="571.4092" y2="571.4092"/><line style="stroke: #888888; stroke-width: 1.0;" x1="120" x2="120" y1="557.0205" y2="587.7979"/><line style="stroke: #888888; stroke-width: 1.0;" x1="120" x2="138" y1="587.7979" y2="587.7979"/><line style="stroke: #888888; stroke-width: 1.0;" x1="120" x2="120" y1="557.0205" y2="604.1865"/><line style="stroke: #888888; stroke-width: 1.0;" x1="120" x2="138" y1="604.1865" y2="604.1865"/><line style="stroke: #888888; stroke-width: 1.0;" x1="120" x2="120" y1="557.0205" y2="620.5752"/><line style="stroke: #888888; stroke-width: 1.0;" x1="120" x2="138" y1="620.5752" y2="620.5752"/><rect fill="none" height="2" style="stroke: #888888; stroke-width: 1.0;" width="2" x="139" y="635.9639"/><line style="stroke: #888888; stroke-width: 1.0;" x1="120" x2="120" y1="557.0205" y2="636.9639"/><line style="stroke: #888888; stroke-width: 1.0;" x1="120" x2="138" y1="636.9639" y2="636.9639"/><line style="stroke: #888888; stroke-width: 1.0;" x1="140" x2="140" y1="638.9639" y2="653.3525"/><line style="stroke: #888888; stroke-width: 1.0;" x1="140" x2="158" y1="653.3525" y2="653.3525"/><line style="stroke: #888888; stroke-width: 1.0;" x1="140" x2="140" y1="638.9639" y2="669.7412"/><line style="stroke: #888888; stroke-width: 1.0;" x1="140" x2="158" y1="669.7412" y2="669.7412"/><line style="stroke: #888888; stroke-width: 1.0;" x1="140" x2="140" y1="638.9639" y2="686.1299"/><line style="stroke: #888888; stroke-width: 1.0;" x1="140" x2="158" y1="686.1299" y2="686.1299"/><line style="stroke: #888888; stroke-width: 1.0;" x1="140" x2="140" y1="638.9639" y2="702.5186"/><line style="stroke: #888888; stroke-width: 1.0;" x1="140" x2="158" y1="702.5186" y2="702.5186"/></g></svg>